<mxfile host="65bd71144e">
    <diagram id="jbAyWPN1_vUW8dfXuM_f" name="Page-1">
        <mxGraphModel dx="3232" dy="1251" grid="1" gridSize="10" guides="1" tooltips="1" connect="1" arrows="1" fold="1" page="1" pageScale="1" pageWidth="850" pageHeight="1100" math="0" shadow="0">
            <root>
                <mxCell id="0"/>
                <mxCell id="1" parent="0"/>
                <mxCell id="243" value="" style="rounded=0;whiteSpace=wrap;html=1;shadow=0;strokeColor=none;" vertex="1" parent="1">
                    <mxGeometry x="-180" width="1240" height="1730" as="geometry"/>
                </mxCell>
                <mxCell id="3" value="&lt;u&gt;ID&lt;/u&gt;" style="rounded=0;whiteSpace=wrap;html=1;" parent="1" vertex="1">
                    <mxGeometry x="80" y="40" width="120" height="20" as="geometry"/>
                </mxCell>
                <mxCell id="4" value="Nome" style="rounded=0;whiteSpace=wrap;html=1;" parent="1" vertex="1">
                    <mxGeometry x="200" y="40" width="120" height="20" as="geometry"/>
                </mxCell>
                <mxCell id="5" value="Email" style="rounded=0;whiteSpace=wrap;html=1;" parent="1" vertex="1">
                    <mxGeometry x="320" y="40" width="120" height="20" as="geometry"/>
                </mxCell>
                <mxCell id="6" value="Num_Telem" style="rounded=0;whiteSpace=wrap;html=1;" parent="1" vertex="1">
                    <mxGeometry x="440" y="40" width="120" height="20" as="geometry"/>
                </mxCell>
                <mxCell id="7" value="Palavra-Passe" style="rounded=0;whiteSpace=wrap;html=1;" parent="1" vertex="1">
                    <mxGeometry x="560" y="40" width="120" height="20" as="geometry"/>
                </mxCell>
                <mxCell id="8" value="Nacionalidade" style="rounded=0;whiteSpace=wrap;html=1;" parent="1" vertex="1">
                    <mxGeometry x="680" y="40" width="120" height="20" as="geometry"/>
                </mxCell>
                <mxCell id="9" value="Utilizador" style="text;html=1;align=center;verticalAlign=middle;whiteSpace=wrap;rounded=0;" parent="1" vertex="1">
                    <mxGeometry x="10" y="35" width="60" height="30" as="geometry"/>
                </mxCell>
                <mxCell id="141" style="edgeStyle=none;html=1;exitX=0.5;exitY=1;exitDx=0;exitDy=0;entryX=0.5;entryY=1;entryDx=0;entryDy=0;" parent="1" source="10" target="3" edge="1">
                    <mxGeometry relative="1" as="geometry"/>
                </mxCell>
                <mxCell id="10" value="&lt;u&gt;ID_Utilizador&lt;/u&gt;(FK)" style="rounded=0;whiteSpace=wrap;html=1;" parent="1" vertex="1">
                    <mxGeometry x="80" y="115" width="120" height="20" as="geometry"/>
                </mxCell>
                <mxCell id="11" value="Idade" style="rounded=0;whiteSpace=wrap;html=1;" parent="1" vertex="1">
                    <mxGeometry x="200" y="115" width="120" height="20" as="geometry"/>
                </mxCell>
                <mxCell id="13" value="Descrição" style="rounded=0;whiteSpace=wrap;html=1;" parent="1" vertex="1">
                    <mxGeometry x="320" y="115" width="120" height="20" as="geometry"/>
                </mxCell>
                <mxCell id="16" value="Jogador" style="text;html=1;align=center;verticalAlign=middle;whiteSpace=wrap;rounded=0;" parent="1" vertex="1">
                    <mxGeometry x="10" y="110" width="60" height="30" as="geometry"/>
                </mxCell>
                <mxCell id="142" style="edgeStyle=none;html=1;exitX=0.5;exitY=1;exitDx=0;exitDy=0;entryX=0.75;entryY=1;entryDx=0;entryDy=0;" parent="1" source="24" target="3" edge="1">
                    <mxGeometry relative="1" as="geometry">
                        <Array as="points">
                            <mxPoint x="140" y="240"/>
                            <mxPoint x="720" y="240"/>
                            <mxPoint x="720" y="80"/>
                            <mxPoint x="170" y="80"/>
                        </Array>
                    </mxGeometry>
                </mxCell>
                <mxCell id="24" value="&lt;u&gt;ID_Utilizador&lt;/u&gt;(FK)" style="rounded=0;whiteSpace=wrap;html=1;" parent="1" vertex="1">
                    <mxGeometry x="80" y="185" width="120" height="20" as="geometry"/>
                </mxCell>
                <mxCell id="25" value="IBAN" style="rounded=0;whiteSpace=wrap;html=1;" parent="1" vertex="1">
                    <mxGeometry x="200" y="185" width="120" height="20" as="geometry"/>
                </mxCell>
                <mxCell id="26" value="Num_Campos" style="rounded=0;whiteSpace=wrap;html=1;" parent="1" vertex="1">
                    <mxGeometry x="320" y="185" width="120" height="20" as="geometry"/>
                </mxCell>
                <mxCell id="28" value="Descrição" style="rounded=0;whiteSpace=wrap;html=1;" parent="1" vertex="1">
                    <mxGeometry x="440" y="185" width="120" height="20" as="geometry"/>
                </mxCell>
                <mxCell id="30" value="Arrendador" style="text;html=1;align=center;verticalAlign=middle;whiteSpace=wrap;rounded=0;" parent="1" vertex="1">
                    <mxGeometry x="10" y="180" width="60" height="30" as="geometry"/>
                </mxCell>
                <mxCell id="38" value="&lt;u&gt;ID&lt;/u&gt;" style="rounded=0;whiteSpace=wrap;html=1;" parent="1" vertex="1">
                    <mxGeometry x="80" y="395" width="120" height="20" as="geometry"/>
                </mxCell>
                <mxCell id="39" value="ID_Ponto" style="rounded=0;whiteSpace=wrap;html=1;" parent="1" vertex="1">
                    <mxGeometry x="200" y="395" width="120" height="20" as="geometry"/>
                </mxCell>
                <mxCell id="40" value="Comprimento" style="rounded=0;whiteSpace=wrap;html=1;" parent="1" vertex="1">
                    <mxGeometry x="320" y="395" width="120" height="20" as="geometry"/>
                </mxCell>
                <mxCell id="41" value="" style="rounded=0;whiteSpace=wrap;html=1;" parent="1" vertex="1">
                    <mxGeometry x="540" y="395" width="120" height="20" as="geometry"/>
                </mxCell>
                <mxCell id="52" value="&lt;u&gt;ID_Campo&lt;/u&gt;(FK)" style="rounded=0;whiteSpace=wrap;html=1;" parent="1" vertex="1">
                    <mxGeometry x="80" y="480" width="120" height="20" as="geometry"/>
                </mxCell>
                <mxCell id="53" value="ID_Arrendador()FK" style="rounded=0;whiteSpace=wrap;html=1;" parent="1" vertex="1">
                    <mxGeometry x="200" y="480" width="120" height="20" as="geometry"/>
                </mxCell>
                <mxCell id="58" value="Campo Priv" style="text;html=1;align=center;verticalAlign=middle;whiteSpace=wrap;rounded=0;" parent="1" vertex="1">
                    <mxGeometry x="10" y="475" width="60" height="30" as="geometry"/>
                </mxCell>
                <mxCell id="154" style="edgeStyle=none;html=1;exitX=0.5;exitY=1;exitDx=0;exitDy=0;entryX=0.25;entryY=1;entryDx=0;entryDy=0;" parent="1" source="59" target="132" edge="1">
                    <mxGeometry relative="1" as="geometry">
                        <Array as="points">
                            <mxPoint x="140" y="600"/>
                            <mxPoint y="600"/>
                            <mxPoint y="430"/>
                            <mxPoint x="110" y="430"/>
                        </Array>
                    </mxGeometry>
                </mxCell>
                <mxCell id="59" value="&lt;u&gt;ID_Campo&lt;/u&gt;&lt;span style=&quot;color: rgb(0, 0, 0);&quot;&gt;(FK)&lt;/span&gt;" style="rounded=0;whiteSpace=wrap;html=1;" parent="1" vertex="1">
                    <mxGeometry x="80" y="555" width="120" height="20" as="geometry"/>
                </mxCell>
                <mxCell id="60" value="Entidade_pub_resp" style="rounded=0;whiteSpace=wrap;html=1;" parent="1" vertex="1">
                    <mxGeometry x="200" y="555" width="120" height="20" as="geometry"/>
                </mxCell>
                <mxCell id="65" value="Campo Pub" style="text;html=1;align=center;verticalAlign=middle;whiteSpace=wrap;rounded=0;" parent="1" vertex="1">
                    <mxGeometry x="10" y="550" width="60" height="30" as="geometry"/>
                </mxCell>
                <mxCell id="66" value="&lt;u&gt;URL&lt;/u&gt;" style="rounded=0;whiteSpace=wrap;html=1;" parent="1" vertex="1">
                    <mxGeometry x="80" y="645" width="120" height="20" as="geometry"/>
                </mxCell>
                <mxCell id="72" value="Imagem" style="text;html=1;align=center;verticalAlign=middle;whiteSpace=wrap;rounded=0;" parent="1" vertex="1">
                    <mxGeometry x="10" y="640" width="60" height="30" as="geometry"/>
                </mxCell>
                <mxCell id="73" value="&lt;u&gt;ID&lt;/u&gt;" style="rounded=0;whiteSpace=wrap;html=1;" parent="1" vertex="1">
                    <mxGeometry x="80" y="720" width="120" height="20" as="geometry"/>
                </mxCell>
                <mxCell id="152" style="edgeStyle=none;html=1;exitX=0.5;exitY=0;exitDx=0;exitDy=0;entryX=0.75;entryY=1;entryDx=0;entryDy=0;" parent="1" source="74" target="132" edge="1">
                    <mxGeometry relative="1" as="geometry">
                        <Array as="points">
                            <mxPoint x="260" y="700"/>
                            <mxPoint x="660" y="700"/>
                            <mxPoint x="660" y="480"/>
                            <mxPoint x="420" y="480"/>
                            <mxPoint x="420" y="440"/>
                            <mxPoint x="170" y="440"/>
                        </Array>
                    </mxGeometry>
                </mxCell>
                <mxCell id="74" value="ID_Campo(FK)" style="rounded=0;whiteSpace=wrap;html=1;" parent="1" vertex="1">
                    <mxGeometry x="200" y="720" width="120" height="20" as="geometry"/>
                </mxCell>
                <mxCell id="75" value="No_jogadores" style="rounded=0;whiteSpace=wrap;html=1;" parent="1" vertex="1">
                    <mxGeometry x="320" y="720" width="120" height="20" as="geometry"/>
                </mxCell>
                <mxCell id="76" value="Duração" style="rounded=0;whiteSpace=wrap;html=1;" parent="1" vertex="1">
                    <mxGeometry x="440" y="720" width="120" height="20" as="geometry"/>
                </mxCell>
                <mxCell id="77" value="Resultado" style="rounded=0;whiteSpace=wrap;html=1;" parent="1" vertex="1">
                    <mxGeometry x="560" y="720" width="120" height="20" as="geometry"/>
                </mxCell>
                <mxCell id="78" value="Data" style="rounded=0;whiteSpace=wrap;html=1;" parent="1" vertex="1">
                    <mxGeometry x="680" y="720" width="120" height="20" as="geometry"/>
                </mxCell>
                <mxCell id="79" value="Partida" style="text;html=1;align=center;verticalAlign=middle;whiteSpace=wrap;rounded=0;" parent="1" vertex="1">
                    <mxGeometry x="10" y="715" width="60" height="30" as="geometry"/>
                </mxCell>
                <mxCell id="80" value="&lt;u&gt;ID&lt;/u&gt;" style="rounded=0;whiteSpace=wrap;html=1;" parent="1" vertex="1">
                    <mxGeometry x="80" y="790" width="120" height="20" as="geometry"/>
                </mxCell>
                <mxCell id="150" style="edgeStyle=none;html=1;exitX=0.5;exitY=1;exitDx=0;exitDy=0;entryX=0.5;entryY=1;entryDx=0;entryDy=0;" parent="1" source="81" target="132" edge="1">
                    <mxGeometry relative="1" as="geometry">
                        <Array as="points">
                            <mxPoint x="260" y="830"/>
                            <mxPoint x="-20" y="830"/>
                            <mxPoint x="-20" y="450"/>
                            <mxPoint x="140" y="450"/>
                        </Array>
                    </mxGeometry>
                </mxCell>
                <mxCell id="81" value="ID_Campo(FK)" style="rounded=0;whiteSpace=wrap;html=1;" parent="1" vertex="1">
                    <mxGeometry x="200" y="790" width="120" height="20" as="geometry"/>
                </mxCell>
                <mxCell id="151" style="edgeStyle=none;html=1;exitX=0.5;exitY=1;exitDx=0;exitDy=0;entryX=0.907;entryY=1.061;entryDx=0;entryDy=0;entryPerimeter=0;" parent="1" source="82" target="10" edge="1">
                    <mxGeometry relative="1" as="geometry">
                        <Array as="points">
                            <mxPoint x="380" y="830"/>
                            <mxPoint x="970" y="830"/>
                            <mxPoint x="970" y="180"/>
                            <mxPoint x="189" y="180"/>
                        </Array>
                    </mxGeometry>
                </mxCell>
                <mxCell id="82" value="ID_Jogador(FK)" style="rounded=0;whiteSpace=wrap;html=1;" parent="1" vertex="1">
                    <mxGeometry x="320" y="790" width="120" height="20" as="geometry"/>
                </mxCell>
                <mxCell id="83" value="Descrição" style="rounded=0;whiteSpace=wrap;html=1;" parent="1" vertex="1">
                    <mxGeometry x="440" y="790" width="120" height="20" as="geometry"/>
                </mxCell>
                <mxCell id="84" value="Data" style="rounded=0;whiteSpace=wrap;html=1;" parent="1" vertex="1">
                    <mxGeometry x="560" y="790" width="120" height="20" as="geometry"/>
                </mxCell>
                <mxCell id="85" value="Hora" style="rounded=0;whiteSpace=wrap;html=1;" parent="1" vertex="1">
                    <mxGeometry x="680" y="790" width="120" height="20" as="geometry"/>
                </mxCell>
                <mxCell id="86" value="Reserva" style="text;html=1;align=center;verticalAlign=middle;whiteSpace=wrap;rounded=0;" parent="1" vertex="1">
                    <mxGeometry x="10" y="785" width="60" height="30" as="geometry"/>
                </mxCell>
                <mxCell id="87" value="Avaliação" style="rounded=0;whiteSpace=wrap;html=1;" parent="1" vertex="1">
                    <mxGeometry x="80" y="865" width="120" height="20" as="geometry"/>
                </mxCell>
                <mxCell id="88" value="Cometário" style="rounded=0;whiteSpace=wrap;html=1;" parent="1" vertex="1">
                    <mxGeometry x="200" y="865" width="120" height="20" as="geometry"/>
                </mxCell>
                <mxCell id="93" value="Rating" style="text;html=1;align=center;verticalAlign=middle;whiteSpace=wrap;rounded=0;" parent="1" vertex="1">
                    <mxGeometry x="10" y="860" width="60" height="30" as="geometry"/>
                </mxCell>
                <mxCell id="146" style="edgeStyle=none;html=1;exitX=0.5;exitY=1;exitDx=0;exitDy=0;entryX=0.25;entryY=1;entryDx=0;entryDy=0;" parent="1" source="94" target="52" edge="1">
                    <mxGeometry relative="1" as="geometry">
                        <Array as="points">
                            <mxPoint x="140" y="980"/>
                            <mxPoint x="-40" y="980"/>
                            <mxPoint x="-40" y="520"/>
                            <mxPoint x="110" y="520"/>
                        </Array>
                    </mxGeometry>
                </mxCell>
                <mxCell id="94" value="&lt;u&gt;ID_Campo_Priv&lt;/u&gt;(FK)" style="rounded=0;whiteSpace=wrap;html=1;" parent="1" vertex="1">
                    <mxGeometry x="80" y="940" width="120" height="20" as="geometry"/>
                </mxCell>
                <mxCell id="95" value="Preço" style="rounded=0;whiteSpace=wrap;html=1;" parent="1" vertex="1">
                    <mxGeometry x="200" y="940" width="120" height="20" as="geometry"/>
                </mxCell>
                <mxCell id="100" value="Preçario" style="text;html=1;align=center;verticalAlign=middle;whiteSpace=wrap;rounded=0;" parent="1" vertex="1">
                    <mxGeometry x="10" y="935" width="60" height="30" as="geometry"/>
                </mxCell>
                <mxCell id="145" style="edgeStyle=none;html=1;exitX=0.5;exitY=1;exitDx=0;exitDy=0;entryX=0.25;entryY=1;entryDx=0;entryDy=0;" parent="1" source="101" target="73" edge="1">
                    <mxGeometry relative="1" as="geometry">
                        <Array as="points">
                            <mxPoint x="140" y="1050"/>
                            <mxPoint y="1050"/>
                            <mxPoint y="760"/>
                            <mxPoint x="110" y="760"/>
                        </Array>
                    </mxGeometry>
                </mxCell>
                <mxCell id="101" value="&lt;u&gt;ID_Partida&lt;/u&gt;(FK)" style="rounded=0;whiteSpace=wrap;html=1;" parent="1" vertex="1">
                    <mxGeometry x="80" y="1015" width="120" height="20" as="geometry"/>
                </mxCell>
                <mxCell id="102" value="Título" style="rounded=0;whiteSpace=wrap;html=1;" parent="1" vertex="1">
                    <mxGeometry x="200" y="1015" width="120" height="20" as="geometry"/>
                </mxCell>
                <mxCell id="107" value="Chat_Live" style="text;html=1;align=center;verticalAlign=middle;whiteSpace=wrap;rounded=0;" parent="1" vertex="1">
                    <mxGeometry x="10" y="1010" width="60" height="30" as="geometry"/>
                </mxCell>
                <mxCell id="224" style="edgeStyle=none;html=1;exitX=0.5;exitY=1;exitDx=0;exitDy=0;entryX=0.25;entryY=1;entryDx=0;entryDy=0;" parent="1" source="108" target="3" edge="1">
                    <mxGeometry relative="1" as="geometry">
                        <Array as="points">
                            <mxPoint x="140" y="1140"/>
                            <mxPoint x="-140" y="1140"/>
                            <mxPoint x="-140" y="710"/>
                            <mxPoint x="-140" y="80"/>
                            <mxPoint x="110" y="80"/>
                        </Array>
                    </mxGeometry>
                </mxCell>
                <mxCell id="108" value="&lt;u&gt;ID_Utilizador&lt;/u&gt;(FK)" style="rounded=0;whiteSpace=wrap;html=1;" parent="1" vertex="1">
                    <mxGeometry x="80" y="1085" width="120" height="20" as="geometry"/>
                </mxCell>
                <mxCell id="153" style="edgeStyle=none;html=1;exitX=0.5;exitY=1;exitDx=0;exitDy=0;entryX=0.5;entryY=1;entryDx=0;entryDy=0;" parent="1" source="109" target="66" edge="1">
                    <mxGeometry relative="1" as="geometry">
                        <Array as="points">
                            <mxPoint x="260" y="1120"/>
                            <mxPoint x="-100" y="1120"/>
                            <mxPoint x="-100" y="680"/>
                            <mxPoint x="140" y="680"/>
                        </Array>
                    </mxGeometry>
                </mxCell>
                <mxCell id="109" value="&lt;u&gt;URL_Imagem&lt;/u&gt;(FK)" style="rounded=0;whiteSpace=wrap;html=1;" parent="1" vertex="1">
                    <mxGeometry x="200" y="1085" width="120" height="20" as="geometry"/>
                </mxCell>
                <mxCell id="114" value="IMG_Perfil" style="text;html=1;align=center;verticalAlign=middle;whiteSpace=wrap;rounded=0;" parent="1" vertex="1">
                    <mxGeometry x="10" y="1080" width="60" height="30" as="geometry"/>
                </mxCell>
                <mxCell id="139" style="edgeStyle=none;html=1;exitX=0.25;exitY=1;exitDx=0;exitDy=0;entryX=0.25;entryY=1;entryDx=0;entryDy=0;" parent="1" source="115" target="10" edge="1">
                    <mxGeometry relative="1" as="geometry">
                        <Array as="points">
                            <mxPoint x="110" y="1200"/>
                            <mxPoint x="-80" y="1200"/>
                            <mxPoint x="-80" y="160"/>
                            <mxPoint x="110" y="160"/>
                        </Array>
                    </mxGeometry>
                </mxCell>
                <mxCell id="115" value="&lt;u&gt;ID_Jogador&lt;/u&gt;(FK)" style="rounded=0;whiteSpace=wrap;html=1;" parent="1" vertex="1">
                    <mxGeometry x="80" y="1160" width="120" height="20" as="geometry"/>
                </mxCell>
                <mxCell id="140" style="edgeStyle=none;html=1;exitX=0.5;exitY=1;exitDx=0;exitDy=0;entryX=0.5;entryY=1;entryDx=0;entryDy=0;" parent="1" source="116" target="73" edge="1">
                    <mxGeometry relative="1" as="geometry">
                        <Array as="points">
                            <mxPoint x="260" y="1200"/>
                            <mxPoint x="830" y="1200"/>
                            <mxPoint x="830" y="760"/>
                            <mxPoint x="140" y="760"/>
                        </Array>
                    </mxGeometry>
                </mxCell>
                <mxCell id="116" value="&lt;u&gt;ID_Partida&lt;/u&gt;(FK)" style="rounded=0;whiteSpace=wrap;html=1;" parent="1" vertex="1">
                    <mxGeometry x="200" y="1160" width="120" height="20" as="geometry"/>
                </mxCell>
                <mxCell id="121" value="Jogador_Joga" style="text;html=1;align=center;verticalAlign=middle;whiteSpace=wrap;rounded=0;" parent="1" vertex="1">
                    <mxGeometry x="10" y="1155" width="60" height="30" as="geometry"/>
                </mxCell>
                <mxCell id="132" value="&lt;u&gt;ID&lt;/u&gt;" style="rounded=0;whiteSpace=wrap;html=1;" parent="1" vertex="1">
                    <mxGeometry x="80" y="395" width="120" height="20" as="geometry"/>
                </mxCell>
                <mxCell id="133" value="Nome" style="rounded=0;whiteSpace=wrap;html=1;" parent="1" vertex="1">
                    <mxGeometry x="200" y="395" width="120" height="20" as="geometry"/>
                </mxCell>
                <mxCell id="164" style="edgeStyle=none;html=1;exitX=0.5;exitY=1;exitDx=0;exitDy=0;entryX=0.5;entryY=1;entryDx=0;entryDy=0;" parent="1" source="166" target="160" edge="1">
                    <mxGeometry relative="1" as="geometry">
                        <Array as="points">
                            <mxPoint x="845" y="440"/>
                            <mxPoint x="920" y="440"/>
                            <mxPoint x="920" y="380"/>
                            <mxPoint x="820" y="380"/>
                            <mxPoint x="140" y="380"/>
                        </Array>
                    </mxGeometry>
                </mxCell>
                <mxCell id="135" value="Estado_ocp" style="rounded=0;whiteSpace=wrap;html=1;" parent="1" vertex="1">
                    <mxGeometry x="560" y="395" width="110" height="20" as="geometry"/>
                </mxCell>
                <mxCell id="136" value="Campo" style="text;html=1;align=center;verticalAlign=middle;whiteSpace=wrap;rounded=0;" parent="1" vertex="1">
                    <mxGeometry x="10" y="390" width="60" height="30" as="geometry"/>
                </mxCell>
                <mxCell id="138" value="Hora" style="rounded=0;whiteSpace=wrap;html=1;" parent="1" vertex="1">
                    <mxGeometry x="800" y="720" width="120" height="20" as="geometry"/>
                </mxCell>
                <mxCell id="155" style="edgeStyle=none;html=1;exitX=0.5;exitY=1;exitDx=0;exitDy=0;entryX=0.622;entryY=1.1;entryDx=0;entryDy=0;entryPerimeter=0;" parent="1" source="52" target="132" edge="1">
                    <mxGeometry relative="1" as="geometry">
                        <Array as="points">
                            <mxPoint x="140" y="540"/>
                            <mxPoint x="-10" y="540"/>
                            <mxPoint x="-10" y="440"/>
                            <mxPoint x="155" y="440"/>
                        </Array>
                    </mxGeometry>
                </mxCell>
                <mxCell id="160" value="&lt;u&gt;ID&lt;/u&gt;" style="rounded=0;whiteSpace=wrap;html=1;" parent="1" vertex="1">
                    <mxGeometry x="80" y="335" width="120" height="20" as="geometry"/>
                </mxCell>
                <mxCell id="161" value="Latitude" style="rounded=0;whiteSpace=wrap;html=1;" parent="1" vertex="1">
                    <mxGeometry x="320" y="335" width="120" height="20" as="geometry"/>
                </mxCell>
                <mxCell id="162" value="Ponto" style="text;html=1;align=center;verticalAlign=middle;whiteSpace=wrap;rounded=0;" parent="1" vertex="1">
                    <mxGeometry x="10" y="330" width="60" height="30" as="geometry"/>
                </mxCell>
                <mxCell id="166" value="ID_Ponto(FK)" style="rounded=0;whiteSpace=wrap;html=1;" parent="1" vertex="1">
                    <mxGeometry x="790" y="395" width="110" height="20" as="geometry"/>
                </mxCell>
                <mxCell id="167" value="Descrição&lt;span style=&quot;font-family: monospace; font-size: 0px; text-align: start; text-wrap-mode: nowrap;&quot;&gt;%3CmxGraphModel%3E%3Croot%3E%3CmxCell%20id%3D%220%22%2F%3E%3CmxCell%20id%3D%221%22%20parent%3D%220%22%2F%3E%3CmxCell%20id%3D%222%22%20value%3D%22ID_Ponto(FK)%22%20style%3D%22rounded%3D0%3BwhiteSpace%3Dwrap%3Bhtml%3D1%3B%22%20vertex%3D%221%22%20parent%3D%221%22%3E%3CmxGeometry%20x%3D%22440%22%20y%3D%22395%22%20width%3D%22120%22%20height%3D%2220%22%20as%3D%22geometry%22%2F%3E%3C%2FmxCell%3E%3C%2Froot%3E%3C%2FmxGraphModel%3E&lt;/span&gt;" style="rounded=0;whiteSpace=wrap;html=1;" parent="1" vertex="1">
                    <mxGeometry x="670" y="395" width="120" height="20" as="geometry"/>
                </mxCell>
                <mxCell id="210" style="edgeStyle=none;html=1;exitX=0.5;exitY=1;exitDx=0;exitDy=0;entryX=0.75;entryY=1;entryDx=0;entryDy=0;" parent="1" source="176" target="10" edge="1">
                    <mxGeometry relative="1" as="geometry">
                        <Array as="points">
                            <mxPoint x="140" y="1280"/>
                            <mxPoint x="-120" y="1280"/>
                            <mxPoint x="-120" y="180"/>
                            <mxPoint x="170" y="180"/>
                        </Array>
                    </mxGeometry>
                </mxCell>
                <mxCell id="176" value="&lt;u&gt;ID_J1&lt;/u&gt;(FK)" style="rounded=0;whiteSpace=wrap;html=1;" parent="1" vertex="1">
                    <mxGeometry x="80" y="1235" width="120" height="20" as="geometry"/>
                </mxCell>
                <mxCell id="177" value="&lt;u&gt;ID_J2&lt;/u&gt;(FK)" style="rounded=0;whiteSpace=wrap;html=1;" parent="1" vertex="1">
                    <mxGeometry x="200" y="1235" width="120" height="20" as="geometry"/>
                </mxCell>
                <mxCell id="178" value="Jogador_Amiz" style="text;html=1;align=center;verticalAlign=middle;whiteSpace=wrap;rounded=0;" parent="1" vertex="1">
                    <mxGeometry x="10" y="1230" width="60" height="30" as="geometry"/>
                </mxCell>
                <mxCell id="185" style="edgeStyle=none;html=1;exitX=0.5;exitY=0;exitDx=0;exitDy=0;entryX=0.5;entryY=1;entryDx=0;entryDy=0;" parent="1" source="179" target="184" edge="1">
                    <mxGeometry relative="1" as="geometry">
                        <Array as="points">
                            <mxPoint x="260" y="310"/>
                            <mxPoint x="140" y="310"/>
                        </Array>
                    </mxGeometry>
                </mxCell>
                <mxCell id="179" value="&lt;u&gt;ID_Mapa&lt;/u&gt;(FK)" style="rounded=0;whiteSpace=wrap;html=1;" parent="1" vertex="1">
                    <mxGeometry x="200" y="335" width="120" height="20" as="geometry"/>
                </mxCell>
                <mxCell id="180" value="" style="rounded=0;whiteSpace=wrap;html=1;" parent="1" vertex="1">
                    <mxGeometry x="80" y="265" width="120" height="20" as="geometry"/>
                </mxCell>
                <mxCell id="182" value="Ultimo_update" style="rounded=0;whiteSpace=wrap;html=1;" parent="1" vertex="1">
                    <mxGeometry x="200" y="265" width="120" height="20" as="geometry"/>
                </mxCell>
                <mxCell id="183" value="Mapa" style="text;html=1;align=center;verticalAlign=middle;whiteSpace=wrap;rounded=0;" parent="1" vertex="1">
                    <mxGeometry x="10" y="260" width="60" height="30" as="geometry"/>
                </mxCell>
                <mxCell id="184" value="&lt;u&gt;ID&lt;/u&gt;" style="rounded=0;whiteSpace=wrap;html=1;" parent="1" vertex="1">
                    <mxGeometry x="80" y="265" width="120" height="20" as="geometry"/>
                </mxCell>
                <mxCell id="189" value="&lt;u&gt;ID_J&lt;/u&gt;(FK)" style="rounded=0;whiteSpace=wrap;html=1;" parent="1" vertex="1">
                    <mxGeometry x="80" y="1315" width="120" height="20" as="geometry"/>
                </mxCell>
                <mxCell id="234" style="edgeStyle=none;html=1;exitX=0.5;exitY=1;exitDx=0;exitDy=0;entryX=0.5;entryY=1;entryDx=0;entryDy=0;" parent="1" source="190" target="231" edge="1">
                    <mxGeometry relative="1" as="geometry">
                        <Array as="points">
                            <mxPoint x="260" y="1360"/>
                            <mxPoint x="360" y="1360"/>
                            <mxPoint x="360" y="1380"/>
                            <mxPoint x="520" y="1380"/>
                        </Array>
                    </mxGeometry>
                </mxCell>
                <mxCell id="190" value="&lt;u&gt;Desporto(&lt;/u&gt;FK&lt;u&gt;)&lt;/u&gt;" style="rounded=0;whiteSpace=wrap;html=1;" parent="1" vertex="1">
                    <mxGeometry x="200" y="1315" width="120" height="20" as="geometry"/>
                </mxCell>
                <mxCell id="191" value="Desporto_Jogador" style="text;html=1;align=center;verticalAlign=middle;whiteSpace=wrap;rounded=0;" parent="1" vertex="1">
                    <mxGeometry x="-10" y="1310" width="60" height="30" as="geometry"/>
                </mxCell>
                <mxCell id="192" value="&lt;u&gt;ID_C&lt;/u&gt;(FK)" style="rounded=0;whiteSpace=wrap;html=1;" parent="1" vertex="1">
                    <mxGeometry x="80" y="1375" width="120" height="20" as="geometry"/>
                </mxCell>
                <mxCell id="235" style="edgeStyle=none;html=1;exitX=0.5;exitY=1;exitDx=0;exitDy=0;entryX=0.75;entryY=1;entryDx=0;entryDy=0;" parent="1" source="193" target="231" edge="1">
                    <mxGeometry relative="1" as="geometry">
                        <Array as="points">
                            <mxPoint x="260" y="1410"/>
                            <mxPoint x="420" y="1410"/>
                            <mxPoint x="550" y="1410"/>
                            <mxPoint x="550" y="1395"/>
                        </Array>
                    </mxGeometry>
                </mxCell>
                <mxCell id="193" value="&lt;u&gt;Desporto(&lt;/u&gt;FK&lt;u&gt;)&lt;/u&gt;" style="rounded=0;whiteSpace=wrap;html=1;" parent="1" vertex="1">
                    <mxGeometry x="200" y="1375" width="120" height="20" as="geometry"/>
                </mxCell>
                <mxCell id="194" value="Desporto_Campo" style="text;html=1;align=center;verticalAlign=middle;whiteSpace=wrap;rounded=0;" parent="1" vertex="1">
                    <mxGeometry x="-10" y="1370" width="60" height="30" as="geometry"/>
                </mxCell>
                <mxCell id="217" style="edgeStyle=none;html=1;exitX=0.5;exitY=1;exitDx=0;exitDy=0;entryX=0.75;entryY=1;entryDx=0;entryDy=0;" parent="1" source="195" target="24" edge="1">
                    <mxGeometry relative="1" as="geometry">
                        <Array as="points">
                            <mxPoint x="140" y="1470"/>
                            <mxPoint x="930" y="1470"/>
                            <mxPoint x="930" y="780"/>
                            <mxPoint x="930" y="230"/>
                            <mxPoint x="170" y="230"/>
                        </Array>
                    </mxGeometry>
                </mxCell>
                <mxCell id="195" value="&lt;u&gt;ID_Arrendador&lt;/u&gt;(FK)" style="rounded=0;whiteSpace=wrap;html=1;" parent="1" vertex="1">
                    <mxGeometry x="80" y="1435" width="120" height="20" as="geometry"/>
                </mxCell>
                <mxCell id="196" value="&lt;u&gt;Met_Pagamento&lt;/u&gt;" style="rounded=0;whiteSpace=wrap;html=1;" parent="1" vertex="1">
                    <mxGeometry x="200" y="1435" width="120" height="20" as="geometry"/>
                </mxCell>
                <mxCell id="197" value="Met_Paga_Arrendador" style="text;html=1;align=center;verticalAlign=middle;whiteSpace=wrap;rounded=0;" parent="1" vertex="1">
                    <mxGeometry x="-20" y="1430" width="60" height="30" as="geometry"/>
                </mxCell>
                <mxCell id="218" style="edgeStyle=none;html=1;exitX=0.5;exitY=1;exitDx=0;exitDy=0;entryX=0.75;entryY=1;entryDx=0;entryDy=0;" parent="1" source="198" target="184" edge="1">
                    <mxGeometry relative="1" as="geometry">
                        <Array as="points">
                            <mxPoint x="140" y="1530"/>
                            <mxPoint x="1020" y="1530"/>
                            <mxPoint x="1020" y="300"/>
                            <mxPoint x="170" y="300"/>
                        </Array>
                    </mxGeometry>
                </mxCell>
                <mxCell id="198" value="&lt;u&gt;ID_Mapa&lt;/u&gt;(FK)" style="rounded=0;whiteSpace=wrap;html=1;" parent="1" vertex="1">
                    <mxGeometry x="80" y="1495" width="120" height="20" as="geometry"/>
                </mxCell>
                <mxCell id="199" value="&lt;u&gt;Modo_exib&lt;/u&gt;" style="rounded=0;whiteSpace=wrap;html=1;" parent="1" vertex="1">
                    <mxGeometry x="200" y="1495" width="120" height="20" as="geometry"/>
                </mxCell>
                <mxCell id="200" value="ModExib_Mapa" style="text;html=1;align=center;verticalAlign=middle;whiteSpace=wrap;rounded=0;" parent="1" vertex="1">
                    <mxGeometry y="1490" width="60" height="30" as="geometry"/>
                </mxCell>
                <mxCell id="203" style="edgeStyle=none;html=1;exitX=0.5;exitY=1;exitDx=0;exitDy=0;entryX=0.5;entryY=1;entryDx=0;entryDy=0;" parent="1" source="201" target="10" edge="1">
                    <mxGeometry relative="1" as="geometry">
                        <Array as="points">
                            <mxPoint x="380" y="920"/>
                            <mxPoint x="950" y="920"/>
                            <mxPoint x="950" y="530"/>
                            <mxPoint x="950" y="160"/>
                            <mxPoint x="140" y="160"/>
                        </Array>
                    </mxGeometry>
                </mxCell>
                <mxCell id="201" value="&lt;u&gt;ID_Avaliador&lt;/u&gt;(FK)" style="rounded=0;whiteSpace=wrap;html=1;" parent="1" vertex="1">
                    <mxGeometry x="320" y="865" width="120" height="20" as="geometry"/>
                </mxCell>
                <mxCell id="225" style="edgeStyle=none;html=1;exitX=0.5;exitY=1;exitDx=0;exitDy=0;entryX=0.25;entryY=1;entryDx=0;entryDy=0;" parent="1" source="204" target="201" edge="1">
                    <mxGeometry relative="1" as="geometry">
                        <Array as="points">
                            <mxPoint x="140" y="1600"/>
                            <mxPoint x="460" y="1600"/>
                            <mxPoint x="800" y="1600"/>
                            <mxPoint x="800" y="1320"/>
                            <mxPoint x="800" y="960"/>
                            <mxPoint x="350" y="960"/>
                            <mxPoint x="350" y="920"/>
                        </Array>
                    </mxGeometry>
                </mxCell>
                <mxCell id="204" value="&lt;u&gt;ID_Avaliador&lt;/u&gt;(FK)" style="rounded=0;whiteSpace=wrap;html=1;" parent="1" vertex="1">
                    <mxGeometry x="80" y="1555" width="120" height="20" as="geometry"/>
                </mxCell>
                <mxCell id="205" value="&lt;u&gt;ID_JAvaliado&lt;/u&gt;(FK)" style="rounded=0;whiteSpace=wrap;html=1;" parent="1" vertex="1">
                    <mxGeometry x="200" y="1555" width="120" height="20" as="geometry"/>
                </mxCell>
                <mxCell id="206" value="Rating_Jogador" style="text;html=1;align=center;verticalAlign=middle;whiteSpace=wrap;rounded=0;" parent="1" vertex="1">
                    <mxGeometry y="1550" width="60" height="30" as="geometry"/>
                </mxCell>
                <mxCell id="226" style="edgeStyle=none;html=1;exitX=0.5;exitY=1;exitDx=0;exitDy=0;entryX=0.75;entryY=1;entryDx=0;entryDy=0;" parent="1" source="207" target="201" edge="1">
                    <mxGeometry relative="1" as="geometry">
                        <Array as="points">
                            <mxPoint x="140" y="1660"/>
                            <mxPoint x="980" y="1660"/>
                            <mxPoint x="980" y="910"/>
                            <mxPoint x="410" y="910"/>
                        </Array>
                    </mxGeometry>
                </mxCell>
                <mxCell id="207" value="&lt;u&gt;ID_Avaliador&lt;/u&gt;(FK)" style="rounded=0;whiteSpace=wrap;html=1;" parent="1" vertex="1">
                    <mxGeometry x="80" y="1610" width="120" height="20" as="geometry"/>
                </mxCell>
                <mxCell id="228" style="edgeStyle=none;html=1;exitX=0.5;exitY=1;exitDx=0;exitDy=0;entryX=0.085;entryY=1.087;entryDx=0;entryDy=0;entryPerimeter=0;" parent="1" source="208" target="132" edge="1">
                    <mxGeometry relative="1" as="geometry">
                        <mxPoint x="80" y="393.0587948069853" as="targetPoint"/>
                        <Array as="points">
                            <mxPoint x="260" y="1680"/>
                            <mxPoint x="-60" y="1680"/>
                            <mxPoint x="-60" y="1100"/>
                            <mxPoint x="-60" y="470"/>
                            <mxPoint x="90" y="470"/>
                        </Array>
                    </mxGeometry>
                </mxCell>
                <mxCell id="208" value="&lt;u&gt;ID_CAvaliado&lt;/u&gt;(FK)" style="rounded=0;whiteSpace=wrap;html=1;" parent="1" vertex="1">
                    <mxGeometry x="200" y="1610" width="120" height="20" as="geometry"/>
                </mxCell>
                <mxCell id="209" value="Rating_Campo" style="text;html=1;align=center;verticalAlign=middle;whiteSpace=wrap;rounded=0;" parent="1" vertex="1">
                    <mxGeometry y="1605" width="60" height="30" as="geometry"/>
                </mxCell>
                <mxCell id="211" style="edgeStyle=none;html=1;exitX=0.5;exitY=1;exitDx=0;exitDy=0;entryX=0.632;entryY=1.044;entryDx=0;entryDy=0;entryPerimeter=0;" parent="1" source="177" target="10" edge="1">
                    <mxGeometry relative="1" as="geometry">
                        <Array as="points">
                            <mxPoint x="260" y="1280"/>
                            <mxPoint x="990" y="1280"/>
                            <mxPoint x="990" y="170"/>
                            <mxPoint x="156" y="170"/>
                        </Array>
                    </mxGeometry>
                </mxCell>
                <mxCell id="215" style="edgeStyle=none;html=1;exitX=0.5;exitY=1;exitDx=0;exitDy=0;entryX=0.075;entryY=0.95;entryDx=0;entryDy=0;entryPerimeter=0;" parent="1" source="189" target="10" edge="1">
                    <mxGeometry relative="1" as="geometry">
                        <Array as="points">
                            <mxPoint x="140" y="1360"/>
                            <mxPoint x="-160" y="1360"/>
                            <mxPoint x="-160" y="950"/>
                            <mxPoint x="-160" y="150"/>
                            <mxPoint x="90" y="150"/>
                        </Array>
                    </mxGeometry>
                </mxCell>
                <mxCell id="216" style="edgeStyle=none;html=1;exitX=0.5;exitY=1;exitDx=0;exitDy=0;entryX=0.883;entryY=1.068;entryDx=0;entryDy=0;entryPerimeter=0;" parent="1" source="192" target="132" edge="1">
                    <mxGeometry relative="1" as="geometry">
                        <Array as="points">
                            <mxPoint x="140" y="1420"/>
                            <mxPoint x="940" y="1420"/>
                            <mxPoint x="940" y="1030"/>
                            <mxPoint x="940" y="480"/>
                            <mxPoint x="710" y="480"/>
                            <mxPoint x="710" y="430"/>
                            <mxPoint x="186" y="430"/>
                        </Array>
                    </mxGeometry>
                </mxCell>
                <mxCell id="222" style="edgeStyle=none;html=1;exitX=0.5;exitY=1;exitDx=0;exitDy=0;entryX=0.365;entryY=1.068;entryDx=0;entryDy=0;entryPerimeter=0;" parent="1" source="219" target="132" edge="1">
                    <mxGeometry relative="1" as="geometry">
                        <Array as="points">
                            <mxPoint x="520" y="1130"/>
                            <mxPoint x="960" y="1130"/>
                            <mxPoint x="960" y="460"/>
                            <mxPoint x="124" y="460"/>
                        </Array>
                    </mxGeometry>
                </mxCell>
                <mxCell id="219" value="&lt;u&gt;ID_Campo&lt;/u&gt;(FK)" style="rounded=0;whiteSpace=wrap;html=1;" parent="1" vertex="1">
                    <mxGeometry x="460" y="1085" width="120" height="20" as="geometry"/>
                </mxCell>
                <mxCell id="223" style="edgeStyle=none;html=1;exitX=0.5;exitY=1;exitDx=0;exitDy=0;entryX=0.75;entryY=1;entryDx=0;entryDy=0;" parent="1" source="220" target="66" edge="1">
                    <mxGeometry relative="1" as="geometry">
                        <Array as="points">
                            <mxPoint x="640" y="1120"/>
                            <mxPoint x="1010" y="1120"/>
                            <mxPoint x="1010" y="680"/>
                            <mxPoint x="170" y="680"/>
                        </Array>
                    </mxGeometry>
                </mxCell>
                <mxCell id="220" value="&lt;u&gt;URL_Imagem&lt;/u&gt;(FK)" style="rounded=0;whiteSpace=wrap;html=1;" parent="1" vertex="1">
                    <mxGeometry x="580" y="1085" width="120" height="20" as="geometry"/>
                </mxCell>
                <mxCell id="221" value="IMG_Campo" style="text;html=1;align=center;verticalAlign=middle;whiteSpace=wrap;rounded=0;" parent="1" vertex="1">
                    <mxGeometry x="390" y="1080" width="60" height="30" as="geometry"/>
                </mxCell>
                <mxCell id="227" style="edgeStyle=none;html=1;exitX=0.5;exitY=1;exitDx=0;exitDy=0;entryX=0.389;entryY=0.809;entryDx=0;entryDy=0;entryPerimeter=0;" parent="1" source="205" target="10" edge="1">
                    <mxGeometry relative="1" as="geometry">
                        <Array as="points">
                            <mxPoint x="260" y="1590"/>
                            <mxPoint x="1040" y="1590"/>
                            <mxPoint x="1040" y="760"/>
                            <mxPoint x="1040" y="150"/>
                            <mxPoint x="310" y="150"/>
                            <mxPoint x="127" y="150"/>
                        </Array>
                    </mxGeometry>
                </mxCell>
                <mxCell id="231" value="&lt;u&gt;ID&lt;/u&gt;" style="rounded=0;whiteSpace=wrap;html=1;" parent="1" vertex="1">
                    <mxGeometry x="460" y="1340" width="120" height="20" as="geometry"/>
                </mxCell>
                <mxCell id="232" value="Nome" style="rounded=0;whiteSpace=wrap;html=1;" parent="1" vertex="1">
                    <mxGeometry x="580" y="1340" width="120" height="20" as="geometry"/>
                </mxCell>
                <mxCell id="233" value="Desporto" style="text;html=1;align=center;verticalAlign=middle;whiteSpace=wrap;rounded=0;" parent="1" vertex="1">
                    <mxGeometry x="390" y="1335" width="60" height="30" as="geometry"/>
                </mxCell>
                <mxCell id="238" value="Longitude" style="rounded=0;whiteSpace=wrap;html=1;" parent="1" vertex="1">
                    <mxGeometry x="440" y="335" width="120" height="20" as="geometry"/>
                </mxCell>
                <mxCell id="239" value="Largura" style="rounded=0;whiteSpace=wrap;html=1;" parent="1" vertex="1">
                    <mxGeometry x="440" y="395" width="120" height="20" as="geometry"/>
                </mxCell>
                <mxCell id="241" value="Data" style="rounded=0;whiteSpace=wrap;html=1;" parent="1" vertex="1">
                    <mxGeometry x="440" y="865" width="120" height="20" as="geometry"/>
                </mxCell>
                <mxCell id="242" value="Hora" style="rounded=0;whiteSpace=wrap;html=1;" parent="1" vertex="1">
                    <mxGeometry x="560" y="865" width="120" height="20" as="geometry"/>
                </mxCell>
            </root>
        </mxGraphModel>
    </diagram>
</mxfile>